{
	"asset":{
		"generator":"Khronos glTF Blender I/O v3.6.27",
		"version":"2.0"
	},
	"extensionsUsed":[
		"KHR_materials_emissive_strength",
		"KHR_materials_specular",
		"KHR_materials_ior"
	],
	"scene":0,
	"scenes":[
		{
			"name":"Scene",
			"nodes":[
				0,
				1
			]
		}
	],
	"nodes":[
		{
			"mesh":0,
			"name":"macBook_TopPart",
			"rotation":[
				0.7370682954788208,
				0,
				0,
				0.6758183240890503
			],
			"scale":[
				1.5724432468414307,
				0.030320601537823677,
				1.4332239627838135
			],
			"translation":[
				0.7617713212966919,
				0.7317956686019897,
				-0.43457987904548645
			]
		},
		{
			"mesh":1,
			"name":"macBook_BottomPart",
			"scale":[
				1.5697290897369385,
				0.032414957880973816,
				1.4292049407958984
			],
			"translation":[
				-1.0712107419967651,
				0.7015505433082581,
				-1.862752914428711
			]
		}
	],
	"materials":[
		{
			"doubleSided":true,
			"name":"Outline",
			"pbrMetallicRoughness":{}
		},
		{
			"doubleSided":true,
			"emissiveFactor":[
				1,
				1,
				1
			],
			"emissiveTexture":{
				"index":0
			},
			"extensions":{
				"KHR_materials_emissive_strength":{
					"emissiveStrength":2
				}
			},
			"name":"Screen",
			"pbrMetallicRoughness":{
				"baseColorFactor":[
					0,
					0,
					0,
					1
				]
			}
		},
		{
			"doubleSided":true,
			"emissiveFactor":[
				1,
				1,
				1
			],
			"extensions":{
				"KHR_materials_emissive_strength":{
					"emissiveStrength":5
				}
			},
			"name":"Emission",
			"pbrMetallicRoughness":{
				"baseColorFactor":[
					0,
					0,
					0,
					1
				]
			}
		},
		{
			"doubleSided":true,
			"name":"Logo",
			"pbrMetallicRoughness":{}
		},
		{
			"doubleSided":true,
			"extensions":{
				"KHR_materials_specular":{
					"specularColorFactor":[
						1.7350280975495913,
						1.7350280975495913,
						1.7350280975495913
					]
				},
				"KHR_materials_ior":{
					"ior":1.4500000476837158
				}
			},
			"name":"Main",
			"pbrMetallicRoughness":{
				"baseColorFactor":[
					0.16259019076824188,
					0.16259028017520905,
					0.18299999833106995,
					1
				],
				"roughnessFactor":0.5617761015892029
			}
		},
		{
			"doubleSided":true,
			"name":"Text",
			"pbrMetallicRoughness":{}
		},
		{
			"doubleSided":true,
			"name":"Camera",
			"pbrMetallicRoughness":{}
		},
		{
			"doubleSided":true,
			"extensions":{
				"KHR_materials_specular":{
					"specularColorFactor":[
						0.19055550239705116,
						0.19055550239705116,
						0.19055550239705116
					]
				},
				"KHR_materials_ior":{
					"ior":1.4500000476837158
				}
			},
			"name":"Camera1",
			"pbrMetallicRoughness":{
				"baseColorFactor":[
					0.008382851257920265,
					0.008382851257920265,
					0.008382851257920265,
					1
				],
				"metallicFactor":0,
				"roughnessFactor":0.5
			}
		},
		{
			"doubleSided":true,
			"extensions":{
				"KHR_materials_specular":{
					"specularColorFactor":[
						1.863209513819976,
						1.863209513819976,
						1.863209513819976
					]
				},
				"KHR_materials_ior":{
					"ior":1.4500000476837158
				}
			},
			"name":"CameraGreen",
			"pbrMetallicRoughness":{
				"baseColorFactor":[
					0.0078100585378706455,
					0.011823827400803566,
					0.006876745726913214,
					1
				],
				"metallicFactor":0,
				"roughnessFactor":0.1071428656578064
			}
		},
		{
			"doubleSided":true,
			"name":"Black",
			"pbrMetallicRoughness":{}
		},
		{
			"doubleSided":true,
			"name":"Second",
			"pbrMetallicRoughness":{
				"baseColorFactor":[
					0.14292751252651215,
					0.14292751252651215,
					0.16616909205913544,
					1
				],
				"metallicFactor":0.4864864945411682,
				"roughnessFactor":0.5
			}
		},
		{
			"doubleSided":true,
			"name":"KeysMain",
			"pbrMetallicRoughness":{}
		},
		{
			"doubleSided":true,
			"name":"KeysBottom",
			"pbrMetallicRoughness":{}
		},
		{
			"alphaMode":"BLEND",
			"doubleSided":true,
			"emissiveFactor":[
				1,
				1,
				1
			],
			"emissiveTexture":{
				"index":1
			},
			"extensions":{
				"KHR_materials_emissive_strength":{
					"emissiveStrength":2
				}
			},
			"name":"TopLine",
			"pbrMetallicRoughness":{
				"baseColorFactor":[
					0,
					0,
					0,
					1
				]
			}
		},
		{
			"doubleSided":true,
			"name":"DarkGrey",
			"pbrMetallicRoughness":{
				"baseColorFactor":[
					0.05780279263854027,
					0.05780279263854027,
					0.05780279263854027,
					1
				],
				"metallicFactor":0,
				"roughnessFactor":0.5
			}
		}
	],
	"meshes":[
		{
			"name":"Cube.004",
			"primitives":[
				{
					"attributes":{
						"POSITION":0,
						"NORMAL":1,
						"TEXCOORD_0":2
					},
					"indices":3,
					"material":0
				},
				{
					"attributes":{
						"POSITION":4,
						"NORMAL":5,
						"TEXCOORD_0":6
					},
					"indices":7,
					"material":1
				},
				{
					"attributes":{
						"POSITION":8,
						"NORMAL":9,
						"TEXCOORD_0":10
					},
					"indices":11,
					"material":2
				},
				{
					"attributes":{
						"POSITION":12,
						"NORMAL":13,
						"TEXCOORD_0":14
					},
					"indices":15,
					"material":3
				},
				{
					"attributes":{
						"POSITION":16,
						"NORMAL":17,
						"TEXCOORD_0":18
					},
					"indices":19,
					"material":4
				},
				{
					"attributes":{
						"POSITION":20,
						"NORMAL":21,
						"TEXCOORD_0":22
					},
					"indices":23,
					"material":5
				},
				{
					"attributes":{
						"POSITION":24,
						"NORMAL":25,
						"TEXCOORD_0":26
					},
					"indices":27,
					"material":6
				},
				{
					"attributes":{
						"POSITION":28,
						"NORMAL":29,
						"TEXCOORD_0":30
					},
					"indices":31,
					"material":7
				},
				{
					"attributes":{
						"POSITION":32,
						"NORMAL":33,
						"TEXCOORD_0":34
					},
					"indices":35,
					"material":8
				}
			]
		},
		{
			"name":"Cube.005",
			"primitives":[
				{
					"attributes":{
						"POSITION":36,
						"NORMAL":37,
						"TEXCOORD_0":38
					},
					"indices":39,
					"material":9
				},
				{
					"attributes":{
						"POSITION":40,
						"NORMAL":41,
						"TEXCOORD_0":42
					},
					"indices":43,
					"material":4
				},
				{
					"attributes":{
						"POSITION":44,
						"NORMAL":45,
						"TEXCOORD_0":46
					},
					"indices":47,
					"material":10
				},
				{
					"attributes":{
						"POSITION":48,
						"NORMAL":49,
						"TEXCOORD_0":50
					},
					"indices":51,
					"material":11
				},
				{
					"attributes":{
						"POSITION":52,
						"NORMAL":53,
						"TEXCOORD_0":54
					},
					"indices":55,
					"material":12
				},
				{
					"attributes":{
						"POSITION":56,
						"NORMAL":57,
						"TEXCOORD_0":58
					},
					"indices":59,
					"material":13
				},
				{
					"attributes":{
						"POSITION":60,
						"NORMAL":61,
						"TEXCOORD_0":62
					},
					"indices":63,
					"material":14
				}
			]
		}
	],
	"textures":[
		{
			"sampler":0,
			"source":0
		},
		{
			"sampler":1,
			"source":1
		}
	],
	"images":[
		{
			"bufferView":8,
			"mimeType":"image/jpeg",
			"name":"macScreen"
		},
		{
			"bufferView":61,
			"mimeType":"image/jpeg",
			"name":"TopLine"
		}
	],
	"accessors":[
		{
			"bufferView":0,
			"componentType":5126,
			"count":108,
			"max":[
				0.025101900100708008,
				0.1554628610610962,
				0.00013253092765808105
			],
			"min":[
				-2.1643946170806885,
				0.04354727268218994,
				-1.584834337234497
			],
			"type":"VEC3"
		},
		{
			"bufferView":1,
			"componentType":5126,
			"count":108,
			"type":"VEC3"
		},
		{
			"bufferView":2,
			"componentType":5126,
			"count":108,
			"type":"VEC2"
		},
		{
			"bufferView":3,
			"componentType":5123,
			"count":468,
			"type":"SCALAR"
		},
		{
			"bufferView":4,
			"componentType":5126,
			"count":12,
			"max":[
				-0.052945852279663086,
				0.043551087379455566,
				-0.08982613682746887
			],
			"min":[
				-2.0863468647003174,
				0.04354727268218994,
				-1.517935037612915
			],
			"type":"VEC3"
		},
		{
			"bufferView":5,
			"componentType":5126,
			"count":12,
			"type":"VEC3"
		},
		{
			"bufferView":6,
			"componentType":5126,
			"count":12,
			"type":"VEC2"
		},
		{
			"bufferView":7,
			"componentType":5123,
			"count":30,
			"type":"SCALAR"
		},
		{
			"bufferView":9,
			"componentType":5126,
			"count":676,
			"max":[
				-0.875354528427124,
				2.0421884059906006,
				-0.6034326553344727
			],
			"min":[
				-1.2169091701507568,
				1.8518273830413818,
				-1.0486761331558228
			],
			"type":"VEC3"
		},
		{
			"bufferView":10,
			"componentType":5126,
			"count":676,
			"type":"VEC3"
		},
		{
			"bufferView":11,
			"componentType":5126,
			"count":676,
			"type":"VEC2"
		},
		{
			"bufferView":12,
			"componentType":5123,
			"count":1014,
			"type":"SCALAR"
		},
		{
			"bufferView":13,
			"componentType":5126,
			"count":169,
			"max":[
				-0.875354528427124,
				1.8518311977386475,
				-0.6034326553344727
			],
			"min":[
				-1.2169091701507568,
				1.8518273830413818,
				-1.0486761331558228
			],
			"type":"VEC3"
		},
		{
			"bufferView":14,
			"componentType":5126,
			"count":169,
			"type":"VEC3"
		},
		{
			"bufferView":15,
			"componentType":5126,
			"count":169,
			"type":"VEC2"
		},
		{
			"bufferView":16,
			"componentType":5123,
			"count":495,
			"type":"SCALAR"
		},
		{
			"bufferView":17,
			"componentType":5126,
			"count":333,
			"max":[
				0.025101900100708008,
				2.0421884059906006,
				0.00013253092765808105
			],
			"min":[
				-2.1643946170806885,
				0.15545523166656494,
				-1.584834337234497
			],
			"type":"VEC3"
		},
		{
			"bufferView":18,
			"componentType":5126,
			"count":333,
			"type":"VEC3"
		},
		{
			"bufferView":19,
			"componentType":5126,
			"count":333,
			"type":"VEC2"
		},
		{
			"bufferView":20,
			"componentType":5123,
			"count":1353,
			"type":"SCALAR"
		},
		{
			"bufferView":21,
			"componentType":5126,
			"count":2361,
			"max":[
				-1.0035630464553833,
				0.03275656700134277,
				-0.022634536027908325
			],
			"min":[
				-1.2073023319244385,
				0.020217061042785645,
				-0.05318382382392883
			],
			"type":"VEC3"
		},
		{
			"bufferView":22,
			"componentType":5126,
			"count":2361,
			"type":"VEC3"
		},
		{
			"bufferView":23,
			"componentType":5126,
			"count":2361,
			"type":"VEC2"
		},
		{
			"bufferView":24,
			"componentType":5123,
			"count":2952,
			"type":"SCALAR"
		},
		{
			"bufferView":25,
			"componentType":5126,
			"count":250,
			"max":[
				-1.0710234642028809,
				0.03466200828552246,
				-1.5319806337356567
			],
			"min":[
				-1.1075162887573242,
				-0.004329562187194824,
				-1.572031021118164
			],
			"type":"VEC3"
		},
		{
			"bufferView":26,
			"componentType":5126,
			"count":250,
			"type":"VEC3"
		},
		{
			"bufferView":27,
			"componentType":5126,
			"count":250,
			"type":"VEC2"
		},
		{
			"bufferView":28,
			"componentType":5123,
			"count":450,
			"type":"SCALAR"
		},
		{
			"bufferView":29,
			"componentType":5126,
			"count":115,
			"max":[
				-1.073143720626831,
				0.03431832790374756,
				-1.534300446510315
			],
			"min":[
				-1.1054127216339111,
				0.026299595832824707,
				-1.5697133541107178
			],
			"type":"VEC3"
		},
		{
			"bufferView":30,
			"componentType":5126,
			"count":115,
			"type":"VEC3"
		},
		{
			"bufferView":31,
			"componentType":5126,
			"count":115,
			"type":"VEC2"
		},
		{
			"bufferView":32,
			"componentType":5123,
			"count":219,
			"type":"SCALAR"
		},
		{
			"bufferView":33,
			"componentType":5126,
			"count":100,
			"max":[
				-1.0822463035583496,
				0.03284573554992676,
				-1.5442498922348022
			],
			"min":[
				-1.0963817834854126,
				0.026299595832824707,
				-1.5597624778747559
			],
			"type":"VEC3"
		},
		{
			"bufferView":34,
			"componentType":5126,
			"count":100,
			"type":"VEC3"
		},
		{
			"bufferView":35,
			"componentType":5126,
			"count":100,
			"type":"VEC2"
		},
		{
			"bufferView":36,
			"componentType":5123,
			"count":150,
			"type":"SCALAR"
		},
		{
			"bufferView":37,
			"componentType":5126,
			"count":146,
			"max":[
				0.892166256904602,
				1,
				0.9968984127044678
			],
			"min":[
				-0.7020736336708069,
				-0.24135082960128784,
				-0.47707581520080566
			],
			"type":"VEC3"
		},
		{
			"bufferView":38,
			"componentType":5126,
			"count":146,
			"type":"VEC3"
		},
		{
			"bufferView":39,
			"componentType":5126,
			"count":146,
			"type":"VEC2"
		},
		{
			"bufferView":40,
			"componentType":5123,
			"count":234,
			"type":"SCALAR"
		},
		{
			"bufferView":41,
			"componentType":5126,
			"count":2301,
			"max":[
				1.1894961595535278,
				1,
				1
			],
			"min":[
				-0.9999999403953552,
				-1.301226258277893,
				-0.5849665403366089
			],
			"type":"VEC3"
		},
		{
			"bufferView":42,
			"componentType":5126,
			"count":2301,
			"type":"VEC3"
		},
		{
			"bufferView":43,
			"componentType":5126,
			"count":2301,
			"type":"VEC2"
		},
		{
			"bufferView":44,
			"componentType":5123,
			"count":6864,
			"type":"SCALAR"
		},
		{
			"bufferView":45,
			"componentType":5126,
			"count":21,
			"max":[
				1.1722242832183838,
				1.009231448173523,
				0.7921878695487976
			],
			"min":[
				-0.9828718304634094,
				0.9942445158958435,
				-0.47445619106292725
			],
			"type":"VEC3"
		},
		{
			"bufferView":46,
			"componentType":5126,
			"count":21,
			"type":"VEC3"
		},
		{
			"bufferView":47,
			"componentType":5126,
			"count":21,
			"type":"VEC2"
		},
		{
			"bufferView":48,
			"componentType":5123,
			"count":45,
			"type":"SCALAR"
		},
		{
			"bufferView":49,
			"componentType":5126,
			"count":1054,
			"max":[
				0.9710553884506226,
				1.213829517364502,
				0.7289608716964722
			],
			"min":[
				-0.7795155644416809,
				0.45183899998664856,
				0.09914848208427429
			],
			"type":"VEC3"
		},
		{
			"bufferView":50,
			"componentType":5126,
			"count":1054,
			"type":"VEC3"
		},
		{
			"bufferView":51,
			"componentType":5126,
			"count":1054,
			"type":"VEC2"
		},
		{
			"bufferView":52,
			"componentType":5123,
			"count":2760,
			"type":"SCALAR"
		},
		{
			"bufferView":53,
			"componentType":5126,
			"count":3656,
			"max":[
				0.9710553884506226,
				1.213829517364502,
				0.7289608716964722
			],
			"min":[
				-0.7795155644416809,
				0.4518389105796814,
				0.09914848208427429
			],
			"type":"VEC3"
		},
		{
			"bufferView":54,
			"componentType":5126,
			"count":3656,
			"type":"VEC3"
		},
		{
			"bufferView":55,
			"componentType":5126,
			"count":3656,
			"type":"VEC2"
		},
		{
			"bufferView":56,
			"componentType":5123,
			"count":8988,
			"type":"SCALAR"
		},
		{
			"bufferView":57,
			"componentType":5126,
			"count":130,
			"max":[
				0.9643660187721252,
				0.7491531372070312,
				0.8147937655448914
			],
			"min":[
				-0.7722110748291016,
				0.7062588334083557,
				0.7380850911140442
			],
			"type":"VEC3"
		},
		{
			"bufferView":58,
			"componentType":5126,
			"count":130,
			"type":"VEC3"
		},
		{
			"bufferView":59,
			"componentType":5126,
			"count":130,
			"type":"VEC2"
		},
		{
			"bufferView":60,
			"componentType":5123,
			"count":252,
			"type":"SCALAR"
		},
		{
			"bufferView":62,
			"componentType":5126,
			"count":848,
			"max":[
				1.2034506797790527,
				0.6472738981246948,
				0.9199271202087402
			],
			"min":[
				-0.9946025609970093,
				-0.3363388776779175,
				0.7621485590934753
			],
			"type":"VEC3"
		},
		{
			"bufferView":63,
			"componentType":5126,
			"count":848,
			"type":"VEC3"
		},
		{
			"bufferView":64,
			"componentType":5126,
			"count":848,
			"type":"VEC2"
		},
		{
			"bufferView":65,
			"componentType":5123,
			"count":2064,
			"type":"SCALAR"
		}
	],
	"bufferViews":[
		{
			"buffer":0,
			"byteLength":1296,
			"byteOffset":0,
			"target":34962
		},
		{
			"buffer":0,
			"byteLength":1296,
			"byteOffset":1296,
			"target":34962
		},
		{
			"buffer":0,
			"byteLength":864,
			"byteOffset":2592,
			"target":34962
		},
		{
			"buffer":0,
			"byteLength":936,
			"byteOffset":3456,
			"target":34963
		},
		{
			"buffer":0,
			"byteLength":144,
			"byteOffset":4392,
			"target":34962
		},
		{
			"buffer":0,
			"byteLength":144,
			"byteOffset":4536,
			"target":34962
		},
		{
			"buffer":0,
			"byteLength":96,
			"byteOffset":4680,
			"target":34962
		},
		{
			"buffer":0,
			"byteLength":60,
			"byteOffset":4776,
			"target":34963
		},
		{
			"buffer":0,
			"byteLength":862318,
			"byteOffset":4836
		},
		{
			"buffer":0,
			"byteLength":8112,
			"byteOffset":867156,
			"target":34962
		},
		{
			"buffer":0,
			"byteLength":8112,
			"byteOffset":875268,
			"target":34962
		},
		{
			"buffer":0,
			"byteLength":5408,
			"byteOffset":883380,
			"target":34962
		},
		{
			"buffer":0,
			"byteLength":2028,
			"byteOffset":888788,
			"target":34963
		},
		{
			"buffer":0,
			"byteLength":2028,
			"byteOffset":890816,
			"target":34962
		},
		{
			"buffer":0,
			"byteLength":2028,
			"byteOffset":892844,
			"target":34962
		},
		{
			"buffer":0,
			"byteLength":1352,
			"byteOffset":894872,
			"target":34962
		},
		{
			"buffer":0,
			"byteLength":990,
			"byteOffset":896224,
			"target":34963
		},
		{
			"buffer":0,
			"byteLength":3996,
			"byteOffset":897216,
			"target":34962
		},
		{
			"buffer":0,
			"byteLength":3996,
			"byteOffset":901212,
			"target":34962
		},
		{
			"buffer":0,
			"byteLength":2664,
			"byteOffset":905208,
			"target":34962
		},
		{
			"buffer":0,
			"byteLength":2706,
			"byteOffset":907872,
			"target":34963
		},
		{
			"buffer":0,
			"byteLength":28332,
			"byteOffset":910580,
			"target":34962
		},
		{
			"buffer":0,
			"byteLength":28332,
			"byteOffset":938912,
			"target":34962
		},
		{
			"buffer":0,
			"byteLength":18888,
			"byteOffset":967244,
			"target":34962
		},
		{
			"buffer":0,
			"byteLength":5904,
			"byteOffset":986132,
			"target":34963
		},
		{
			"buffer":0,
			"byteLength":3000,
			"byteOffset":992036,
			"target":34962
		},
		{
			"buffer":0,
			"byteLength":3000,
			"byteOffset":995036,
			"target":34962
		},
		{
			"buffer":0,
			"byteLength":2000,
			"byteOffset":998036,
			"target":34962
		},
		{
			"buffer":0,
			"byteLength":900,
			"byteOffset":1000036,
			"target":34963
		},
		{
			"buffer":0,
			"byteLength":1380,
			"byteOffset":1000936,
			"target":34962
		},
		{
			"buffer":0,
			"byteLength":1380,
			"byteOffset":1002316,
			"target":34962
		},
		{
			"buffer":0,
			"byteLength":920,
			"byteOffset":1003696,
			"target":34962
		},
		{
			"buffer":0,
			"byteLength":438,
			"byteOffset":1004616,
			"target":34963
		},
		{
			"buffer":0,
			"byteLength":1200,
			"byteOffset":1005056,
			"target":34962
		},
		{
			"buffer":0,
			"byteLength":1200,
			"byteOffset":1006256,
			"target":34962
		},
		{
			"buffer":0,
			"byteLength":800,
			"byteOffset":1007456,
			"target":34962
		},
		{
			"buffer":0,
			"byteLength":300,
			"byteOffset":1008256,
			"target":34963
		},
		{
			"buffer":0,
			"byteLength":1752,
			"byteOffset":1008556,
			"target":34962
		},
		{
			"buffer":0,
			"byteLength":1752,
			"byteOffset":1010308,
			"target":34962
		},
		{
			"buffer":0,
			"byteLength":1168,
			"byteOffset":1012060,
			"target":34962
		},
		{
			"buffer":0,
			"byteLength":468,
			"byteOffset":1013228,
			"target":34963
		},
		{
			"buffer":0,
			"byteLength":27612,
			"byteOffset":1013696,
			"target":34962
		},
		{
			"buffer":0,
			"byteLength":27612,
			"byteOffset":1041308,
			"target":34962
		},
		{
			"buffer":0,
			"byteLength":18408,
			"byteOffset":1068920,
			"target":34962
		},
		{
			"buffer":0,
			"byteLength":13728,
			"byteOffset":1087328,
			"target":34963
		},
		{
			"buffer":0,
			"byteLength":252,
			"byteOffset":1101056,
			"target":34962
		},
		{
			"buffer":0,
			"byteLength":252,
			"byteOffset":1101308,
			"target":34962
		},
		{
			"buffer":0,
			"byteLength":168,
			"byteOffset":1101560,
			"target":34962
		},
		{
			"buffer":0,
			"byteLength":90,
			"byteOffset":1101728,
			"target":34963
		},
		{
			"buffer":0,
			"byteLength":12648,
			"byteOffset":1101820,
			"target":34962
		},
		{
			"buffer":0,
			"byteLength":12648,
			"byteOffset":1114468,
			"target":34962
		},
		{
			"buffer":0,
			"byteLength":8432,
			"byteOffset":1127116,
			"target":34962
		},
		{
			"buffer":0,
			"byteLength":5520,
			"byteOffset":1135548,
			"target":34963
		},
		{
			"buffer":0,
			"byteLength":43872,
			"byteOffset":1141068,
			"target":34962
		},
		{
			"buffer":0,
			"byteLength":43872,
			"byteOffset":1184940,
			"target":34962
		},
		{
			"buffer":0,
			"byteLength":29248,
			"byteOffset":1228812,
			"target":34962
		},
		{
			"buffer":0,
			"byteLength":17976,
			"byteOffset":1258060,
			"target":34963
		},
		{
			"buffer":0,
			"byteLength":1560,
			"byteOffset":1276036,
			"target":34962
		},
		{
			"buffer":0,
			"byteLength":1560,
			"byteOffset":1277596,
			"target":34962
		},
		{
			"buffer":0,
			"byteLength":1040,
			"byteOffset":1279156,
			"target":34962
		},
		{
			"buffer":0,
			"byteLength":504,
			"byteOffset":1280196,
			"target":34963
		},
		{
			"buffer":0,
			"byteLength":59966,
			"byteOffset":1280700
		},
		{
			"buffer":0,
			"byteLength":10176,
			"byteOffset":1340668,
			"target":34962
		},
		{
			"buffer":0,
			"byteLength":10176,
			"byteOffset":1350844,
			"target":34962
		},
		{
			"buffer":0,
			"byteLength":6784,
			"byteOffset":1361020,
			"target":34962
		},
		{
			"buffer":0,
			"byteLength":4128,
			"byteOffset":1367804,
			"target":34963
		}
	],
	"samplers":[
		{
			"magFilter":9729,
			"minFilter":9987
		},
		{
			"magFilter":9729,
			"minFilter":9987,
			"wrapS":33071,
			"wrapT":33071
		}
	],
	"buffers":[
		{
			"byteLength":1371932,
			"uri":"data:application/octet-stream;base64,"
		}
	]
}
